<svg width="98" height="98" xmlns="http://www.w3.org/2000/svg" xmlns:xlink="http://www.w3.org/1999/xlink" xml:space="preserve" overflow="hidden"><g transform="translate(-627 -309)"><path d="M57.279 23.959C65.1919 26.4453 71.4875 32.4879 74.2962 40.2923L71.1521 38.4242C70.2237 37.7842 68.9523 38.0181 68.3123 38.9464 67.6724 39.8749 67.9062 41.1462 68.8347 41.7862 68.9223 41.8466 69.0145 41.9 69.1104 41.946L76.2562 46.1825C76.6182 46.4729 77.0682 46.6313 77.5323 46.6317L77.5833 46.6317 77.7467 46.6317 77.8283 46.6317 77.8283 46.6317 77.9917 46.6317C78.5147 46.4958 78.9626 46.158 79.2371 45.6925L83.7083 38.169C84.196 37.1523 83.7671 35.9328 82.7504 35.4452 81.8444 35.0106 80.7568 35.2999 80.1865 36.1273L78.2979 39.3429 78.2979 39.3429C75.938 32.4473 71.1915 26.622 64.9148 22.9177 62.8893 21.7256 60.7352 20.7667 58.4938 20.0594 57.4169 19.7239 56.272 20.3249 55.9366 21.4018 55.6011 22.4786 56.2021 23.6235 57.279 23.959Z" fill="#61BDCC" transform="matrix(-1 0 0 1 725 309)"></path><path d="M19.5387 56.3092C19.7568 57.2318 20.5813 57.883 21.5294 57.8813 21.6878 57.8803 21.8455 57.8597 21.999 57.82 23.0781 57.5439 23.7367 56.4537 23.4792 55.37 21.9229 48.6932 23.021 41.6731 26.5417 35.7904 27.3569 34.4105 28.293 33.1054 29.3388 31.8908L29.4 31.9521 29.4 35.6883C29.4 36.8159 30.3141 37.73 31.4417 37.73 32.5693 37.73 33.4833 36.8159 33.4833 35.6883L33.565 27.0317C33.565 25.9041 32.6509 24.99 31.5233 24.99L22.8565 24.9083C21.7288 24.9083 20.8148 25.8224 20.8148 26.95 20.8148 28.0776 21.7288 28.9917 22.8565 28.9917L26.4804 28.9917C25.1635 30.442 23.9877 32.0144 22.9688 33.6875 18.9293 40.4958 17.6991 48.6094 19.5387 56.3092Z" fill="#61BDCC" transform="matrix(-1 0 0 1 725 309)"></path><path d="M67.5996 68.549C61.3938 74.4035 52.7576 76.928 44.3756 75.3375L44.3756 75.3375 47.6219 73.5C48.6 72.9362 48.936 71.6862 48.3722 70.708 47.8084 69.7299 46.5584 69.3939 45.5802 69.9577L38.0771 74.2146C37.0965 74.7712 36.7529 76.0175 37.3095 76.9981 37.3101 76.9992 37.3108 77.0003 37.3115 77.0015L41.6092 84.525C42.173 85.506 43.4252 85.8442 44.4062 85.2804 45.3873 84.7166 45.7255 83.4644 45.1617 82.4833L43.3344 79.2983C53.0978 81.2634 63.207 78.3583 70.4375 71.5094 71.2871 70.7681 71.375 69.4783 70.6337 68.6287 69.8925 67.779 68.6028 67.6912 67.753 68.4325 67.7105 68.4695 67.6695 68.5084 67.6302 68.549Z" fill="#61BDCC" transform="matrix(-1 0 0 1 725 309)"></path><path d="M34.7083 67.0075C34.7083 71.5178 31.052 75.1742 26.5417 75.1742 22.0313 75.1742 18.375 71.5178 18.375 67.0075 18.375 62.4972 22.0313 58.8408 26.5417 58.8408 31.052 58.8408 34.7083 62.4972 34.7083 67.0075Z" fill="#61BDCC" transform="matrix(-1 0 0 1 725 309)"></path><path d="M84.2188 60.025C84.2188 64.5353 80.5624 68.1917 76.0521 68.1917 71.5418 68.1917 67.8854 64.5353 67.8854 60.025 67.8854 55.5147 71.5418 51.8583 76.0521 51.8583 80.5624 51.8583 84.2188 55.5147 84.2188 60.025Z" fill="#61BDCC" transform="matrix(-1 0 0 1 725 309)"></path><path d="M53.849 21.0394C53.849 25.5497 50.1926 29.206 45.6823 29.206 41.172 29.206 37.5156 25.5497 37.5156 21.0394 37.5156 16.5291 41.172 12.8727 45.6823 12.8727 50.1926 12.8727 53.849 16.5291 53.849 21.0394Z" fill="#61BDCC" transform="matrix(-1 0 0 1 725 309)"></path></g></svg>